<svg width="99" height="103" viewBox="0 0 99 103" fill="none" xmlns="http://www.w3.org/2000/svg">
<path fill-rule="evenodd" clip-rule="evenodd" d="M72.5215 5.22077C65.6135 2.05873 46.1545 7.40792 33.4582 15.9695C15.5067 28.0827 12.8998 41.5436 24.9498 60.0899C31.3006 69.9088 41.7837 85.1287 41.493 85.2295C41.4204 85.2547 39.0234 84.5216 36.1509 83.5828C26.9371 80.5618 22.4552 80.3871 21.2118 82.9592C20.7096 83.9979 21.2583 84.3016 26.7212 85.824C26.77 85.8483 34.617 87.9436 47.8769 92.9784C55.6816 95.9118 54.604 93.0743 52.5771 86.6961C50.4872 80.0104 49.7264 75.7044 49.092 70.4489C48.7419 67.4826 48.7114 63.4174 45.0738 64.0615C42.1637 64.5767 41.4042 70.151 43.3627 78.7349C44.1409 82.1291 43.8239 81.9097 40.1383 76.148C38.3322 73.3161 35.6552 69.3454 34.2438 67.3236C18.6461 45.232 19.7839 33.4334 38.7613 20.5115C45.4896 15.9136 59.5545 10.0886 65.8374 9.22698C72.3994 8.35089 75.4091 6.56593 72.5215 5.22077Z" fill="#EC8000"/>
</svg>
