<svg width="136" height="185" viewBox="0 0 136 185" fill="none" xmlns="http://www.w3.org/2000/svg">
<path d="M61.1025 66.5478C64.5987 63.5245 84.0986 48.7377 87.644 46.4839C90.6478 44.6149 91.3372 43.9009 91.9773 42.0319C93.7008 36.9195 96.3599 20.2084 97.394 7.89526C97.9356 1.79363 94.4887 -1.50422 90.2046 1.07935C89.269 1.62905 86.6099 3.11323 84.2955 4.37753C81.9812 5.58686 75.2842 10.3142 69.3752 14.8218C56.129 24.9911 56.523 19.9339 54.2578 45.3301C53.7654 51.2119 49.8753 76.2774 61.1025 66.5478ZM63.1214 32.1919C63.1214 30.4329 64.7957 28.894 75.432 20.8684C80.7009 16.8556 85.822 12.8975 86.7577 12.018C89.072 9.92913 89.1705 9.98432 88.6781 13.3375C86.0683 31.0926 84.2955 35.5454 82.5721 40.7676C71.6403 46.9792 59.3298 57.3129 58.8866 57.0381C58.6896 56.7083 63.1214 36.7544 63.1214 32.1919Z" fill="#BC9EFF" fill-opacity="0.1"/>
<path d="M56.6245 124.762C60.3177 124.762 84.2494 100.85 86.5145 99.0362C91.1925 95.2983 97.0031 65.7246 93.4084 63.8557C91.9311 63.0861 92.2266 63.0311 88.6812 64.0206C87.1547 64.4603 80.8024 67.6486 74.5487 71.1666C60.3177 79.1372 61.7949 76.4437 60.1207 81.1711C55.7382 93.4843 52.9314 117.725 51.7988 119.759C50.6662 121.573 53.7685 124.762 56.6245 124.762ZM60.8593 106.622C62.7798 99.8607 64.7987 90.406 66.2267 83.9196C84.2001 74.8496 87.2531 72.2655 87.2531 73.4198C87.2531 74.7941 85.3327 77.708 83.0676 95.1883C78.8327 98.1017 69.9691 103.928 64.4048 108.6C58.545 113.493 58.8897 113.658 60.8593 106.622Z" fill="#BC9EFF" fill-opacity="0.1"/>
<path d="M41.6032 87.8769C37.5161 80.1261 30.4745 88.3172 29.4896 89.1417C18.5087 98.3766 13.9784 104.258 8.16784 109.92C5.16407 112.889 6.83836 112.064 2.30808 129.984C-2.71462 149.883 0.0921834 154.116 14.3724 142.077C23.2359 134.602 23.7283 134.711 33.4783 126.905C37.6638 123.607 37.2207 120.254 39.4858 111.239C42.1941 100.52 43.0805 90.6253 41.6032 87.8769ZM28.8987 119.925C28.3571 123.718 23.6298 123.388 14.6678 130.534C8.16784 135.756 11.2701 133.776 12.8951 119.594L13.486 114.428C30.2283 99.531 34.0692 94.1989 34.0692 96.1778C34.0692 96.1778 29.2927 117.176 28.8987 119.925Z" fill="#BC9EFF" fill-opacity="0.1"/>
<path d="M134.819 22.9581C127.285 28.1252 107.735 44.5063 105.913 46.2653C104.387 47.6945 102.91 48.9039 102.663 48.9039C100.842 48.9039 102.22 56.6546 100.842 69.6274C98.7241 89.7463 99.8567 94.3082 117.83 82.3798C121.08 80.236 125.955 77.598 128.762 76.4436C137.281 72.9256 136.69 73.5852 137.035 68.1432C137.182 65.5597 138.069 60.2826 138.906 56.3248C140.925 47.1998 142.5 37.0301 142.993 30.7086C143.731 21.7486 139.694 19.6049 134.819 22.9581ZM134.031 39.1193C132.553 47.6945 128.713 65.0644 128.516 66.9883C128.269 69.2421 120.982 71.111 111.478 77.1577C106.554 80.2909 106.948 80.7862 107.982 72.8156C109.016 65.0649 109.656 57.4241 110.099 52.202C110.099 52.202 128.663 37.6351 130.83 35.8212C135.607 31.8084 135.311 31.5885 134.031 39.1193Z" fill="#BC9EFF" fill-opacity="0.1"/>
<path d="M116.304 90.9004C105.274 98.7061 98.3799 103.873 97.789 103.873C96.0163 103.873 90.4026 132.347 90.9936 138.229C91.1905 140.043 91.6337 145.1 91.6337 145.43C92.1754 149.993 103.452 143.946 119.505 130.369C123.986 126.576 124.577 126.246 126.448 126.356C129.452 126.521 130.289 124.707 131.372 115.967C134.967 86.228 131.372 80.2363 116.304 90.9004ZM122.509 121.244C122.459 121.299 119.357 123.113 115.565 125.366C101.778 133.447 97.789 137.735 98.2321 135.646C98.4784 134.546 100.547 118.275 101.285 111.789C101.482 110.195 101.827 109.37 102.615 108.93C103.206 108.601 124.38 94.7483 124.38 94.7483C124.429 94.8033 123.444 121.244 122.509 121.244Z" fill="#BC9EFF" fill-opacity="0.1"/>
<path d="M79.3733 116.571C77.4036 117.945 67.2597 126.08 61.3999 131.028C52.7333 138.339 51.5022 140.428 48.6462 152.796C47.7106 156.864 46.3811 162.196 45.6917 164.615C39.7826 185.558 46.2826 186.492 50.4682 183.359C53.4227 181.105 71.0021 164.725 74.843 160.657C77.6991 157.579 78.6839 156.864 79.6195 157.084C82.6233 157.743 83.6574 154.884 85.5286 140.482C87.0551 128.664 88.4831 110.249 79.3733 116.571ZM79.5703 127.675C79.0778 131.358 76.4188 149.003 76.4188 150.707C76.4188 151.642 52.1424 170.496 52.5363 168.847C56.1802 152.796 55.5893 142.352 57.2143 142.352C58.0514 142.352 60.1196 140.813 72.1839 131.193C80.7028 124.377 79.9642 124.707 79.5703 127.675Z" fill="#BC9EFF" fill-opacity="0.1"/>
<path d="M12.2084 91.6157C14.0796 90.5163 19.1516 85.2937 25.9469 79.1921C43.0339 63.7456 43.7726 62.6468 46.3331 48.3547C49.1399 32.5232 50.371 13.3935 39.1438 23.5629C35.8938 26.5312 17.3297 42.3075 14.6214 44.3963C10.8297 47.3647 6.69331 80.7312 5.21605 87.9872C4.67438 90.7906 9.35239 93.2099 12.2084 91.6157ZM19.447 51.378C37.5188 36.1512 39.9809 33.9524 39.9809 34.8869C39.9809 35.5466 36.6324 52.3125 36.337 55.6107C36.0415 59.2387 25.8484 67.0988 13.7841 78.4775C12.2084 79.9067 13.9811 77.5985 19.447 51.378Z" fill="#BC9EFF" fill-opacity="0.1"/>
</svg>
