<svg width="33" height="32" viewBox="0 0 33 32" fill="none" xmlns="http://www.w3.org/2000/svg">
<path d="M24.1385 1.20415C24.138 1.20505 24.1368 1.20509 24.1363 1.20421C24.1356 1.20307 24.1339 1.20357 24.1339 1.20489L24.1341 1.21169C24.1341 1.21219 24.134 1.21269 24.1337 1.21314L20.3327 8.69532C17.9572 13.371 18.1049 18.9305 20.7251 23.4736L24.9177 30.7436C24.9179 30.744 24.9181 30.7445 24.9181 30.745L24.9183 30.7518C24.9183 30.7532 24.9201 30.7536 24.9207 30.7524C24.9211 30.7515 24.9224 30.7515 24.9229 30.7523C24.9236 30.7535 24.9253 30.753 24.9253 30.7517L24.9251 30.7448C24.9251 30.7443 24.9252 30.7439 24.9254 30.7434L28.7265 23.2612C31.1019 18.5855 30.9544 13.026 28.3341 8.48291L24.1415 1.21293C24.1413 1.21249 24.1411 1.21201 24.1411 1.2115L24.1409 1.2047C24.1409 1.20338 24.1391 1.20298 24.1385 1.20415Z" fill="#9781FF"/>
<path d="M8.78592 1.61195C8.78549 1.6128 8.7843 1.61281 8.78385 1.61197C8.78327 1.61088 8.78161 1.61132 8.78164 1.61256L8.78183 1.61945C8.78184 1.61992 8.78174 1.62038 8.78152 1.6208L4.98019 9.10303C2.60467 13.7787 2.75234 19.3383 5.37251 23.8813L9.56547 31.1514C9.5657 31.1518 9.56583 31.1522 9.56584 31.1527L9.56603 31.1596C9.56606 31.1608 9.56774 31.1612 9.56826 31.16C9.56866 31.1592 9.56986 31.1591 9.57033 31.16L9.57042 31.1601C9.57107 31.1612 9.5728 31.1607 9.57276 31.1594L9.57258 31.1526C9.57257 31.1521 9.57268 31.1516 9.5729 31.1511L13.3742 23.6689C15.7497 18.9932 15.6021 13.4337 12.9819 8.89061L8.78896 1.62065C8.78871 1.62021 8.78857 1.61972 8.78856 1.61922L8.78838 1.61235C8.78834 1.61105 8.78659 1.61065 8.786 1.61181L8.78592 1.61195Z" fill="#7539FF"/>
<path d="M12.8697 24.0244C11.2335 27.2449 13.6347 31.0441 17.2458 30.9482C20.8568 30.8524 23.0531 26.9312 21.2484 23.802C19.3576 20.5235 14.5839 20.6502 12.8697 24.0244Z" fill="#A495FF"/>
<path d="M12.4587 8.56262C10.6539 5.43345 12.8502 1.51221 16.4612 1.41635C20.0722 1.32049 22.4734 5.11961 20.8373 8.34013C19.1231 11.7142 14.3495 11.841 12.4587 8.56262Z" fill="#A495FF"/>
</svg>
