<svg width="162" height="285" viewBox="0 0 162 285" fill="none" xmlns="http://www.w3.org/2000/svg">
<path fill-rule="evenodd" clip-rule="evenodd" d="M501.098 225.087C489.745 114.861 452.387 77.1072 329.489 52.2899C256.357 37.5052 236.952 19.1562 217.943 -52.7875C198.01 -128.691 178.737 -154.037 128.838 -170.01C104.153 -177.931 51.3499 -180.966 23.1004 -176.214C9.50369 -173.969 2.50733 -170.01 1.31924 -163.806C-0.660858 -153.113 2.63974 -78.9256 7.656 -22.8233C9.6361 -0.910121 10.1636 -0.248775 26.2684 1.4673C66.1345 5.69152 81.0516 16.7801 86.0679 46.3496C87.256 53.214 92.2722 81.1994 92.6682 84.4996C104.945 173.868 125.934 191.953 246.324 217.166C301.239 228.651 318.663 243.172 321.963 280.53C322.359 285.15 321.568 285.15 343.481 282.642C351.534 281.718 387.44 280.53 423.346 279.87C511.79 278.286 506.906 281.85 501.098 225.087ZM362.358 263.765C329.885 266.009 332.789 266.404 331.733 259.011C328.829 237.494 320.38 226.671 297.675 214.658C283.286 207.002 258.205 200.402 225.335 195.385C142.831 182.713 118.674 156.179 103.229 62.0584C97.4205 26.2846 95.0445 17.3081 89.5002 9.65174C74.5834 -10.9413 49.3698 -9.88659 23.7604 -10.9426C23.7604 -10.9426 21.6483 -42.8883 21.1203 -47.9045C20.1962 -58.5971 18.6126 -58.1997 42.6378 -53.3155C77.2236 -46.3191 93.8562 -37.6067 108.377 -18.7297C123.294 0.675296 127.782 15.328 139.003 82.5195C149.959 147.995 179.925 168.192 284.738 180.865C355.098 189.445 378.331 206.738 384.404 254.92L385.326 262.181L362.358 263.765ZM396.152 261.785C394.832 256.108 391.796 244.492 390.872 238.948C382.027 188.257 358.529 172.02 279.721 162.384C207.381 153.539 194.84 148.786 172.795 121.724C161.971 108.391 155.768 95.8508 153.26 82.1221C149.431 61.6611 154.448 93.4761 138.739 12.5559C127.65 -44.339 82.6356 -78.7941 26.5327 -72.9858L19.5366 -72.1925C17.0285 -88.4293 16.8961 -120.903 13.8599 -155.621C13.9919 -155.621 73.1311 -158.525 97.8164 -155.621C157.352 -148.493 193.258 -109.286 208.967 -34.3065C222.827 32.0929 253.321 61.1344 322.228 73.279C402.885 87.5357 439.714 107.469 465.984 151.031C476.148 167.796 488.689 215.978 490.141 243.568L490.932 258.351L396.152 261.785Z" fill="#7539FF"/>
</svg>
