<svg width="27" height="27" viewBox="0 0 27 27" fill="none" xmlns="http://www.w3.org/2000/svg">
<path d="M13.5 0.579102C10.0522 0.579102 6.74559 1.94874 4.30761 4.38671C1.86964 6.82469 0.5 10.1313 0.5 13.5791C0.5 17.0269 1.86964 20.3335 4.30761 22.7715C6.74558 25.2095 10.0522 26.5791 13.5 26.5791L13.5 13.5791V0.579102Z" fill="#7539FF"/>
<path d="M13.5 26.5791C16.9478 26.5791 20.2544 25.2095 22.6924 22.7715C25.1304 20.3335 26.5 17.0269 26.5 13.5791C26.5 10.1313 25.1304 6.82469 22.6924 4.38672C20.2544 1.94874 16.9478 0.579103 13.5 0.579102L13.5 13.5791L13.5 26.5791Z" fill="#A495FF"/>
</svg>
