<svg width="147" height="123" viewBox="0 0 147 123" fill="none" xmlns="http://www.w3.org/2000/svg">
<path fill-rule="evenodd" clip-rule="evenodd" d="M145.551 128.198C141.954 93.2702 130.116 81.307 91.1731 73.443C67.9995 68.7581 61.8506 62.9438 55.8272 40.1467C49.5109 16.0949 43.4038 8.06325 27.5922 3.00187C19.77 0.492101 3.03811 -0.469643 -5.91341 1.03622C-10.2218 1.74732 -12.4388 3.00196 -12.8153 4.96795C-13.4427 8.35614 -12.3969 31.8642 -10.8073 49.6416C-10.1799 56.5853 -10.0127 56.7949 -4.90954 57.3387C7.72298 58.6772 12.4498 62.1909 14.0394 71.5607C14.4158 73.7359 16.0053 82.6037 16.1308 83.6495C20.021 111.968 26.672 117.699 64.8205 125.688C82.2216 129.327 87.7427 133.929 88.7884 145.766C88.9139 147.23 88.6633 147.23 95.607 146.436C98.1586 146.143 109.536 145.766 120.914 145.557C148.94 145.055 147.392 146.185 145.551 128.198ZM101.589 140.454C91.2986 141.165 92.2188 141.29 91.8842 138.948C90.964 132.129 88.2869 128.7 81.0922 124.893C76.5328 122.467 68.5852 120.376 58.1696 118.786C32.0261 114.771 24.3713 106.363 19.4772 76.5384C17.6367 65.2026 16.8838 62.3582 15.127 59.9321C10.4002 53.4067 2.41067 53.7409 -5.70426 53.4063C-5.70426 53.4063 -6.37353 43.2835 -6.54085 41.694C-6.83366 38.3058 -7.33549 38.4317 0.277489 39.9794C11.2368 42.1964 16.5073 44.9571 21.1085 50.9388C25.8354 57.0877 27.2576 61.7308 30.8131 83.022C34.2849 103.769 43.7802 110.169 76.9929 114.185C99.288 116.904 106.65 122.384 108.574 137.651L108.867 139.952L101.589 140.454ZM112.297 139.827C111.879 138.028 110.917 134.347 110.624 132.59C107.821 116.527 100.375 111.382 75.403 108.329C52.4804 105.526 48.5066 104.02 41.521 95.445C38.091 91.2202 36.1254 87.2464 35.3307 82.8961C34.1176 76.4125 35.7071 86.4939 30.7294 60.8524C27.2157 42.8238 12.9518 31.9059 -4.8258 33.7464L-7.04268 33.9978C-7.83744 28.8528 -7.8794 18.5626 -8.84148 7.56146C-8.79965 7.56146 9.94003 6.64121 17.7621 7.56146C36.6274 9.82025 48.005 22.2438 52.9827 46.0029C57.3748 67.0431 67.0375 76.2456 88.8725 80.0939C114.43 84.6115 126.101 90.9278 134.425 104.732C137.646 110.044 141.62 125.312 142.08 134.054L142.33 138.739L112.297 139.827Z" fill="#7F56FF"/>
</svg>
