<svg width="30" height="32" viewBox="0 0 30 32" fill="none" xmlns="http://www.w3.org/2000/svg">
<path d="M29.9779 23.9726L29.9843 23.9691H29.9718L22.5924 19.9705L15.2008 15.9648L7.8089 19.9705L0.42955 23.9691H0.416992L0.423417 23.9726L0.416992 23.9761H0.42955L7.8089 27.9747L15.2008 31.9803L22.5924 27.9747L29.9718 23.9761H29.9843L29.9779 23.9726Z" fill="#9781FF"/>
<path d="M29.9779 8.61468L29.9843 8.61146H29.9718L22.5924 4.61256L15.2008 0.606934L7.8089 4.61256L0.42955 8.61146H0.416992L0.423417 8.61468L0.416992 8.61819H0.42955L7.8089 12.6171L15.2008 16.6227L22.5924 12.6171L29.9718 8.61819H29.9843L29.9779 8.61468Z" fill="#7539FF"/>
<path d="M0.429688 8.28906V24.2978L15.2009 16.2936L0.429688 8.28906Z" fill="#A495FF"/>
<path d="M29.9721 8.28906V24.2978L15.2012 16.2936L29.9721 8.28906Z" fill="#A495FF"/>
</svg>
